<?xml version="1.0" encoding="UTF-8"?>
<svg version="1.1" xmlns="http://www.w3.org/2000/svg" width="838" height="832">
<path d="M0 0 C276.54 0 553.08 0 838 0 C838 274.56 838 549.12 838 832 C561.46 832 284.92 832 0 832 C0 557.44 0 282.88 0 0 Z " fill="#FEFEFE" transform="translate(0,0)"/>
<path d="M0 0 C4.78629936 3.99611492 9.31241406 8.16541255 13.71704102 12.57659912 C14.3551172 13.21170418 14.99319338 13.84680924 15.6506052 14.50115991 C17.77073539 16.61267474 19.88733052 18.7276961 22.00390625 20.84277344 C23.53031675 22.3645508 25.05692305 23.88613178 26.58370972 25.40753174 C30.71840069 29.52914721 34.84979165 33.65405458 38.98017502 37.77998638 C41.56365674 40.36053043 44.14772155 42.9404892 46.73196411 45.5202713 C54.82605069 53.60069771 62.91814204 61.68311432 71.00733471 69.76844001 C80.32953491 79.08615852 89.65823732 88.39730154 98.99266529 97.70276999 C106.21940155 104.90786614 113.44033983 112.11873966 120.65693188 119.33399606 C124.9621162 123.63813433 129.2696759 127.93982817 133.58328247 132.23552704 C137.64138214 136.27710513 141.69220801 140.32583636 145.73767471 144.38005829 C147.21889276 145.86204443 148.70265323 147.34149474 150.18920517 148.81813049 C167.90499061 166.42269942 167.90499061 166.42269942 172.8125 177.625 C173.19019531 178.46289062 173.56789063 179.30078125 173.95703125 180.1640625 C179.47052207 195.15580159 178.33013933 210.51664122 172 225 C171.58878906 225.96164062 171.17757813 226.92328125 170.75390625 227.9140625 C168.16651083 233.24240797 164.80341871 237.55217597 160.76531982 241.84867859 C160.24339577 242.40852721 159.72147172 242.96837583 159.18373179 243.54518956 C152.38761222 250.78518915 145.34728093 257.78454784 138.31738281 264.79614258 C136.77847139 266.33477123 135.23978151 267.87362149 133.70129395 269.41267395 C129.56387561 273.55037677 125.42340254 277.68501007 121.28233433 281.81905961 C116.94038204 286.15471972 112.60130075 290.49325124 108.26190186 294.83146667 C100.06197203 303.02830037 91.85949863 311.22258374 83.65608668 319.41593236 C74.30937605 328.75142825 64.96553746 338.08979653 55.62192774 347.42839587 C36.41779117 366.62210698 17.21008737 385.8122449 -2 405 C-5.08865121 403.62373101 -7.20017529 402.04893841 -9.58443069 399.66166496 C-10.28210721 398.96797054 -10.97978373 398.27427612 -11.69860196 397.55956066 C-12.45735836 396.79497858 -13.21611475 396.0303965 -13.99786377 395.24264526 C-14.80982484 394.43239305 -15.6217859 393.62214083 -16.45835185 392.78733552 C-18.71046993 390.53794364 -20.95803919 388.28411789 -23.20377445 386.02835679 C-25.62683122 383.59666797 -28.05566008 381.17075665 -30.48379517 378.74414062 C-34.68971135 374.53927345 -38.8919484 370.33075816 -43.09171295 366.11974716 C-49.16388068 360.03132952 -55.24155958 353.94843805 -61.32060036 347.86688377 C-71.18314454 337.99996169 -81.04121355 328.12858099 -90.89648438 318.25439453 C-100.4703136 308.66220897 -110.04623989 299.07212497 -119.625 289.48486328 C-120.21537423 288.8939636 -120.80574846 288.30306393 -121.41401282 287.6942582 C-124.37574198 284.72991898 -127.33751248 281.76562106 -130.29930353 278.80134368 C-154.87261505 254.2072967 -179.43867064 229.60601299 -204 205 C-199.49913296 199.60717533 -194.73656597 194.59706505 -189.7616272 189.64137268 C-188.54112232 188.41958617 -188.54112232 188.41958617 -187.29596078 187.1731171 C-184.58069742 184.4562123 -181.86188587 181.74288685 -179.14306641 179.02954102 C-177.19097352 177.07828796 -175.23963701 175.12627913 -173.28826904 173.17430115 C-169.09275456 168.97826359 -164.89542035 164.78405355 -160.69682693 160.59109688 C-154.62644873 154.52886303 -148.55885014 148.46385331 -142.49191551 142.39817344 C-132.64744566 132.5558895 -122.80074705 122.71583847 -112.95263672 112.87719727 C-103.38896177 103.32270836 -93.82634291 93.7671645 -84.26513672 84.21020508 C-83.67528794 83.62061902 -83.08543915 83.03103296 -82.47771616 82.42358065 C-79.51847664 79.46564622 -76.55925781 76.50769108 -73.60004926 73.54972565 C-49.06990616 49.02994081 -24.53614173 24.51378215 0 0 Z " fill="#ED2BA2" transform="translate(656,214)"/>
<path d="M0 0 C5.33643381 4.45660748 10.30182489 9.16211737 15.20677185 14.08651733 C16.00496198 14.88385304 16.80315211 15.68118875 17.62552983 16.50268614 C20.28715641 19.16267168 22.94520402 21.82620436 25.60327148 24.48974609 C27.51511614 26.40243065 29.42771665 28.31435875 31.34028625 30.22631836 C35.45120013 34.33670921 39.56028671 38.44891938 43.66811943 42.56238937 C49.60727655 48.5096916 55.54921021 54.45421346 61.49181379 60.39807172 C71.13444061 70.04288433 80.77483457 79.68992556 90.41381836 89.33837891 C99.77429669 98.70804359 109.1358302 108.07665194 118.4987793 117.44384766 C119.07641737 118.02174846 119.65405545 118.59964926 120.24919771 119.19506221 C123.14719587 122.09436544 126.04521472 124.99364799 128.94324386 127.89292026 C152.96537243 151.92540672 176.98387466 175.9615144 201 200 C199.04666405 204.26379346 196.09824343 207.18905707 192.81071472 210.46343994 C192.1688934 211.11049794 191.52707208 211.75755594 190.86580163 212.42422175 C188.70981681 214.59523034 186.54672009 216.75900901 184.38354492 218.92285156 C182.83746543 220.47655133 181.29179038 222.03065364 179.74649048 223.58512878 C175.54220695 227.81138682 171.33134145 232.0310266 167.11859679 236.24884892 C164.48455238 238.88653573 161.85181137 241.52551643 159.21950722 244.16493988 C150.50337618 252.90431724 141.78261458 261.63904288 133.05651589 270.36846724 C132.58612981 270.83903614 132.11574372 271.30960503 131.63110352 271.79443359 C130.92465345 272.50115448 130.92465345 272.50115448 130.20393167 273.22215256 C122.58891652 280.8407022 114.98569241 288.47090087 107.38765546 296.10637954 C99.57392091 303.95830718 91.75053365 311.8005084 83.91804963 319.63373351 C79.52589543 324.02667881 75.13776778 328.42346777 70.75951195 332.83026886 C66.63459035 336.98147832 62.49771013 341.12039613 58.35164261 345.25048256 C56.83853344 346.76178534 55.32962189 348.27730534 53.82544518 349.7974987 C38.43183344 365.34486832 23.50966628 375.88786732 0.6875 376.375 C-4.76790237 376.22220346 -10.15923939 375.81266202 -15.5625 375.0625 C-17.48255859 374.80146484 -17.48255859 374.80146484 -19.44140625 374.53515625 C-33.64101972 370.70074544 -44.51950179 358.17322824 -54.46044922 348.10717773 C-56.05747755 346.50873612 -57.65561345 344.91140046 -59.25476074 343.31507874 C-63.55844642 339.01281765 -67.84662533 334.69540387 -72.1320281 330.37494159 C-76.62595203 325.84959411 -81.13420092 321.33856196 -85.64089966 316.82594299 C-93.19204724 309.26105989 -100.73441681 301.68753732 -108.27001953 294.10717773 C-116.02581682 286.30536429 -123.78693833 278.50891017 -131.55517578 270.71948242 C-132.03539094 270.23795365 -132.51560609 269.75642488 -133.01037322 269.26030432 C-135.41991736 266.84423419 -137.82956545 264.42826775 -140.2392652 262.01235282 C-160.17564632 242.02428302 -180.09364498 222.01797028 -200 202 C-198.62373101 198.91134879 -197.04893841 196.79982471 -194.66166496 194.41556931 C-193.96797054 193.71789279 -193.27427612 193.02021627 -192.55956066 192.30139804 C-191.79497858 191.54264164 -191.0303965 190.78388525 -190.24264526 190.00213623 C-189.43239305 189.19017516 -188.62214083 188.3782141 -187.78733552 187.54164815 C-185.53794364 185.28953007 -183.28411789 183.04196081 -181.02835679 180.79622555 C-178.59666797 178.37316878 -176.17075665 175.94433992 -173.74414062 173.51620483 C-169.53927345 169.31028865 -165.33075816 165.1080516 -161.11974716 160.90828705 C-155.03132952 154.83611932 -148.94843805 148.75844042 -142.86688377 142.67939964 C-132.99996169 132.81685546 -123.12858099 122.95878645 -113.25439453 113.10351562 C-103.66220897 103.5296864 -94.07212497 93.95376011 -84.48486328 84.375 C-83.8939636 83.78462577 -83.30306393 83.19425154 -82.6942582 82.58598718 C-79.72991898 79.62425802 -76.76562106 76.66248752 -73.80134368 73.70069647 C-49.2072967 49.12738495 -24.60601299 24.56132936 0 0 Z " fill="#C30D82" transform="translate(414,456)"/>
<path d="M0 0 C3.5098215 2.55270265 6.51655013 5.47393761 9.55768764 8.55916452 C10.5594089 9.55704087 10.5594089 9.55704087 11.58136696 10.57507634 C13.7946823 12.78349022 15.99717388 15.00237864 18.19979274 17.221457 C19.79326921 18.81578054 21.38740826 20.40944209 22.98215663 22.00249338 C27.2941478 26.31362617 31.59684585 30.63392608 35.89790404 34.95596266 C40.40257242 39.47943009 44.91578141 43.99436004 49.42807949 48.51021433 C56.99745849 56.0878495 64.56157849 63.67068883 72.12166774 71.25758982 C79.90036802 79.06384815 87.68222772 86.86693457 95.46834743 94.66579294 C95.9487454 95.14697908 96.42914336 95.62816521 96.92409884 96.12393275 C99.33464845 98.53839813 101.7452604 100.95280124 104.15590358 103.36717319 C122.73982116 121.97998207 141.31483993 140.60164852 159.88246042 159.23071456 C162.03334085 161.38866633 164.18428932 163.54652975 166.33870876 165.70094919 C165.93343928 166.03516414 165.5281698 166.36937908 165.11061943 166.71372175 C157.486642 173.18596088 150.54554138 180.36984918 143.49324977 187.44875193 C141.99639764 188.94752535 140.4993161 190.44606969 139.00202358 191.94440317 C135.79112754 195.15844892 132.58178884 198.37403872 129.37365329 201.59083986 C124.30534643 206.67270008 119.23319957 211.75071594 114.16047084 216.82816172 C103.40441597 227.59529592 92.65260913 238.36666759 81.90120876 249.13844919 C70.26972489 260.79194667 58.63751395 272.44471291 47.00044376 284.09263235 C41.95230486 289.14576758 36.90661716 294.20133416 31.8627615 299.2587446 C28.7362229 302.3927095 25.60764357 305.52463089 22.4784888 308.65598345 C21.02188061 310.11447321 19.56614174 311.57383174 18.11131084 313.03409433 C16.13502524 315.01752971 14.1557405 316.99792141 12.17563808 318.97754526 C11.59258374 319.56419456 11.0095294 320.15084387 10.40880674 320.75527042 C6.45280207 324.70094919 6.45280207 324.70094919 5.33870876 324.70094919 C5.00870876 285.10094919 4.67870876 245.50094919 4.33870876 204.70094919 C-15.75415142 214.00830047 -15.75415142 214.00830047 -35.66129124 223.70094919 C-50.23867098 218.84182261 -63.76669024 211.26228855 -77.66129124 204.70094919 C-77.99129124 245.95094919 -78.32129124 287.20094919 -78.66129124 329.70094919 C-83.35747905 325.67564536 -87.83000142 321.67650327 -92.17746556 317.31175852 C-92.79386269 316.69692138 -93.41025982 316.08208424 -94.04533565 315.44861567 C-96.09189391 313.40601788 -98.13489271 311.35989833 -100.1778928 309.31374216 C-101.65166468 307.84132648 -103.12564896 306.36912337 -104.59982884 304.89711618 C-108.58943076 300.9120614 -112.57587719 296.92386411 -116.56161797 292.93494797 C-120.73606397 288.75796574 -124.91295431 284.58342895 -129.08945286 280.40849924 C-136.09859723 273.40117227 -143.10563458 266.39174354 -150.11148655 259.38112497 C-158.21273378 251.27442959 -166.31758577 243.17135155 -174.42430723 235.07013071 C-181.38763797 228.11133573 -188.34902085 221.15059668 -195.30877483 214.18822443 C-199.46437165 210.03106822 -203.6206421 205.87459155 -207.77866948 201.71986628 C-211.68464296 197.81677843 -215.58816779 193.91125818 -219.48980534 190.00383615 C-220.92285478 188.56946313 -222.35675836 187.13594288 -223.79157078 185.70333338 C-225.74771714 183.74991402 -227.70076602 181.79344947 -229.6530515 179.83617258 C-230.22318038 179.26827442 -230.79330926 178.70037626 -231.38071477 178.11526906 C-234.03532856 175.44744845 -236.50960788 172.79418791 -238.66129124 169.70094919 C-237.385261 166.90697905 -236.06463919 164.85366311 -233.8974973 162.68267965 C-233.33188871 162.11123887 -232.76628012 161.53979809 -232.18353188 160.95104092 C-231.56195419 160.33324256 -230.9403765 159.71544419 -230.29996312 159.07892466 C-229.30955478 158.082778 -229.30955478 158.082778 -228.29913819 157.06650716 C-226.08085863 154.8378922 -223.85547649 152.61650882 -221.63004124 150.39504099 C-220.0396718 148.80032519 -218.44972114 147.20519165 -216.86015904 145.60967112 C-212.53602685 141.27212462 -208.20548494 136.94103142 -203.87337697 132.61145234 C-200.2560962 128.99524035 -196.64179446 125.37605819 -193.02744591 121.75691587 C-184.00769138 112.72542085 -174.98164487 103.70024934 -165.9528091 94.67783586 C-158.12518575 86.85537327 -150.305786 79.0247495 -142.49026668 71.19019523 C-134.45697068 63.13748496 -126.41794783 55.09053958 -118.37320721 47.04925901 C-113.86023496 42.53809729 -109.3495017 38.02475362 -104.84439671 33.50573397 C-100.60268861 29.25141691 -96.35373617 25.00446847 -92.09921658 20.76296473 C-90.54306793 19.20917528 -88.98944668 17.6528496 -87.43862164 16.09374666 C-67.97558202 -3.4656276 -67.97558202 -3.4656276 -54.66129124 -8.29905081 C-53.84273655 -8.59811331 -53.02418187 -8.89717581 -52.18082249 -9.20530081 C-34.00636564 -15.00394583 -15.42685143 -10.39186057 0 0 Z " fill="#AA0FBA" transform="translate(452.6612912416458,11.29905080795288)"/>
<path d="M0 0 C4.24891274 1.65038033 7.08966487 4.8174758 10.2313385 7.99082947 C10.85333946 8.61112158 11.47534042 9.23141369 12.1161899 9.87050253 C14.20211721 11.95313199 16.28080939 14.04283612 18.35961914 16.13256836 C19.85242994 17.62594323 21.34568113 19.11887799 22.83934021 20.61140442 C26.89738535 24.66887471 30.94922511 28.73249149 35.0000031 32.79721522 C39.23645554 37.04615964 43.47856217 41.28945117 47.72007751 45.53334045 C55.75626548 53.57575019 63.78734175 61.62324449 71.81660503 69.67256695 C80.94473491 78.82300978 90.07850594 87.96781271 99.2127744 97.11212718 C116.69837724 114.61718919 134.17832107 132.12789078 151.65309101 149.64376682 C154.10078548 152.0971256 156.54947121 154.54947121 159 157 C119.73 157 80.46 157 40 157 C44.95 167.89 49.9 178.78 55 190 C59 199 59 199 58.44702148 202.14257812 C57.96950439 203.08552734 57.4919873 204.02847656 57 205 C56.51668213 206.07185547 56.03336426 207.14371094 55.53540039 208.24804688 C54.97844482 209.39337891 54.42148926 210.53871094 53.84765625 211.71875 C53.54685654 212.33971558 53.24605682 212.96068115 52.93614197 213.60046387 C51.98168231 215.56865909 51.02214708 217.53432974 50.0625 219.5 C49.42219766 220.81885104 48.78222081 222.13786015 48.14257812 223.45703125 C45.45813789 228.9867149 42.74902063 234.50195874 40 240 C79.93 240.33 119.86 240.66 161 241 C156.93219942 245.74576735 152.88358592 250.25891717 148.47000122 254.6502533 C147.84009116 255.28101778 147.2101811 255.91178227 146.56118286 256.56166083 C144.4677941 258.65668554 142.37087204 260.74813614 140.27392578 262.83959961 C138.76545588 264.34778721 137.2572066 265.8561955 135.74916077 267.36480713 C131.66717136 271.44708282 127.58211146 275.52627326 123.49648523 279.6049087 C119.22257904 283.87255326 114.95151453 288.14303985 110.68014526 292.41322327 C102.59688385 300.49337965 94.51107723 308.57098404 86.42434871 316.64767033 C77.21563618 325.84519601 68.0097713 335.04556967 58.80414224 344.24618137 C39.87259073 363.16728724 20.93747335 382.08482122 2 401 C-0.76088967 399.7358517 -2.80920609 398.44137447 -4.95580006 396.29867554 C-5.51330725 395.74700053 -6.07081445 395.19532553 -6.64521581 394.6269331 C-7.24745038 394.0209192 -7.84968496 393.4149053 -8.47016907 392.79052734 C-9.11793263 392.14658933 -9.7656962 391.50265131 -10.43308896 390.83920002 C-12.60642547 388.67619726 -14.77253054 386.50609539 -16.9387207 384.3359375 C-18.4940282 382.78497645 -20.04975339 381.23443418 -21.60586548 379.6842804 C-25.83597708 375.4675822 -30.05963578 371.24447578 -34.28178048 367.01980209 C-37.80852066 363.49199306 -41.33823109 359.96716335 -44.8679015 356.44228649 C-53.67636011 347.64556805 -62.47850144 338.84255223 -71.27787908 330.0367521 C-78.90634632 322.40312437 -86.54297337 314.77772043 -94.18353233 307.15619707 C-102.03735974 299.32178583 -109.88542623 291.48163965 -117.72782201 283.63578415 C-122.12720142 279.23459444 -126.52876062 274.83564302 -130.93599892 270.44232178 C-135.08525856 266.30567382 -139.22714402 262.16177908 -143.36359024 258.01231956 C-144.8786786 256.49487257 -146.39630171 254.97995126 -147.91670418 253.46782875 C-163.2295098 238.23237993 -174.98389559 223.71952324 -175.375 201.3125 C-175.35561866 177.81989183 -162.72533485 162.46748629 -146.97775269 146.72891235 C-145.51455885 145.2727942 -144.0512683 143.81677323 -142.58789062 142.36083984 C-141.02965019 140.80316438 -139.47185165 139.24504676 -137.91445923 137.68652344 C-133.70878853 133.48028156 -129.49700297 129.28021219 -125.2840519 125.08126402 C-120.87355608 120.68331485 -116.46876569 116.27965877 -112.06335449 111.87661743 C-104.20366611 104.02278019 -96.33970323 96.17324115 -88.47344059 88.32598896 C-81.33512267 81.20483036 -74.19914985 74.08133089 -67.06542969 66.95556641 C-66.59558617 66.48624834 -66.12574266 66.01693027 -65.64166147 65.53339045 C-63.28430878 63.17864807 -60.92699981 60.82386194 -58.56970692 58.46905971 C-39.05280062 38.97302919 -19.5287672 19.48414918 0 0 Z " fill="#8C0D82" transform="translate(175,218)"/>
</svg>
